<?xml version="1.0" encoding="UTF-8" standalone="no"?><!DOCTYPE svg PUBLIC "-//W3C//DTD SVG 1.1//EN" "http://www.w3.org/Graphics/SVG/1.1/DTD/svg11.dtd"><svg width="100%" height="100%" viewBox="0 0 1050 1050" version="1.1" xmlns="http://www.w3.org/2000/svg" xmlns:xlink="http://www.w3.org/1999/xlink" xml:space="preserve" xmlns:serif="http://www.serif.com/" style="fill-rule:evenodd;clip-rule:evenodd;stroke-linejoin:round;stroke-miterlimit:2;"><path d="M819.292,530.235l229.075,22.174c-8.901,167.392 -97.268,320.448 -237.783,411.853l-133.741,-187.298l142.449,-246.729Zm-589.477,0l142.45,246.729l-133.741,187.298c-140.515,-91.405 -228.882,-244.461 -237.784,-411.853l229.075,-22.174Zm152.289,-263.773l-95.334,-209.472c149.416,-75.987 326.151,-75.987 475.568,0l-95.335,209.472l-284.899,0Z" style="fill:#969696;"/><path d="M524.554,90.681c239.461,0 433.873,194.412 433.873,433.873c0,239.461 -194.412,433.873 -433.873,433.873c-239.461,0 -433.873,-194.412 -433.873,-433.873c0,-239.461 194.412,-433.873 433.873,-433.873Zm0,55.803c208.662,0 378.069,169.408 378.069,378.07c0,208.662 -169.407,378.069 -378.069,378.069c-208.662,0 -378.07,-169.407 -378.07,-378.069c0,-208.662 169.408,-378.07 378.07,-378.07Z" style="fill:#c8c8c8;"/><path d="M1047.72,486.365c-11.674,-159.92 -95.851,-305.719 -228.509,-395.788l0,51.783c100.761,77.682 166.769,192.011 183.663,318.114l44.846,25.891Zm-817.815,-395.788c-132.659,90.069 -216.836,235.868 -228.509,395.788l44.846,-25.891c16.894,-126.103 82.902,-240.432 183.663,-318.114l0,-51.783Zm66.144,906.142c144.332,69.851 312.685,69.851 457.017,0l-44.845,-25.891c-117.655,48.42 -249.671,48.42 -367.326,0l-44.846,25.891Z" style="fill:#969696;"/><path d="M379.599,419.922l289.91,0l203.599,-117.548l18.136,31.413l-203.599,117.548l-144.955,251.069l0,235.096l-36.272,0l0,-235.096l-144.956,-251.069l-203.599,-117.548l18.137,-31.413l203.599,117.548Zm21.72,33.482l123.235,213.449l123.234,-213.449l-246.469,0Z" style="fill:#c8c8c8;"/></svg>